PathFileType	4	(X/Y/Z)	D:\TRACE\spotREDO_2-26-24\spot_Both_Motion_3_9-platform.trc
DataRate	CameraRate	NumFrames	NumMarkers	Units	OrigDataRate	OrigDataStartFrame	OrigNumFrames
100.00	100.00	      74	5	mm	100.00	1751	      7000
Frame#	Time	Left_Front			Right_Front			Left_Aft			Right_Aft			Post			
		X1	Y1	Z1	X2	Y2	Z2	X3	Y3	Z3	X4	Y4	Z4	X5	Y5	Z5	

1751	17.500	-722.73663	-8.58031	-577.04810	692.34802	0.59579	-492.20905	-794.14398	9.08607	641.33221	775.09552	16.12783	646.89050	-28.29187	614.38092	-989.47272	
1752	17.510	-722.78259	-8.61863	-577.05573	692.22437	0.53825	-492.25073	-794.25287	9.14340	641.31183	774.96100	16.20837	646.85583	-28.36250	614.24420	-989.23578	
1753	17.520	-722.80640	-8.68028	-577.11633	692.15692	0.49447	-492.29233	-794.40826	9.18010	641.25745	774.80933	16.25646	646.76721	-28.24825	614.10547	-988.95020	
1754	17.530	-722.95178	-8.76916	-577.11377	692.03607	0.39744	-492.39984	-794.56097	9.29025	641.27216	774.71851	16.34382	646.88647	-28.50923	614.09674	-988.63806	
1755	17.540	-723.06781	-8.77660	-577.12097	691.90649	0.33512	-492.33194	-794.73798	9.43745	641.22955	774.73035	16.42709	646.87506	-28.83100	614.10358	-988.26758	
1756	17.550	-723.23798	-8.80776	-577.18158	691.75024	0.29242	-492.34772	-794.84930	9.46120	641.21222	774.61395	16.50079	646.71667	-29.10965	614.10211	-988.16699	
1757	17.560	-723.31995	-8.84228	-577.25616	691.58740	0.23584	-492.30997	-794.94769	9.49899	641.14178	774.45117	16.53675	646.64197	-29.16825	614.06647	-988.20715	
1758	17.570	-723.37885	-8.97777	-577.26373	691.42975	0.07835	-492.32434	-795.20349	9.49874	641.11945	774.35382	16.55259	646.59357	-29.10258	614.03516	-988.50568	
1759	17.580	-723.39221	-9.11911	-577.29272	691.40729	-0.14860	-492.31198	-795.32324	9.43211	641.10638	774.17365	16.51695	646.58875	-28.97157	613.94678	-989.03790	
1760	17.590	-723.13531	-9.49622	-576.93640	691.33228	-0.15794	-492.30576	-795.41589	9.47094	641.11035	774.03040	16.58002	646.58344	-29.18189	613.80444	-989.44196	
1761	17.600	-723.49030	-9.24444	-577.34900	691.06415	-0.01193	-492.34171	-795.50494	9.48251	641.09448	774.07898	16.65529	646.55493	-29.24501	613.70245	-989.93829	
1762	17.610	-723.68420	-9.25471	-577.26129	690.99896	-0.15930	-492.39975	-795.49701	9.51207	641.13831	773.93420	16.68600	646.57098	-29.33933	613.62909	-990.17615	
1763	17.620	-723.90234	-9.26119	-577.29596	690.56293	-0.05505	-492.44275	-795.54663	9.50454	641.17603	773.69177	16.69559	646.55200	-29.57388	613.56580	-990.30200	
1764	17.630	-723.96027	-9.30454	-577.27802	690.49719	-0.12218	-492.43173	-795.78967	9.78183	641.21448	773.57349	16.70797	646.56000	-29.70999	613.48938	-990.31836	
1765	17.640	-724.07050	-9.36501	-577.23553	690.38153	-0.10220	-492.46698	-795.69025	9.50325	641.19092	773.44922	16.70500	646.57623	-29.85227	613.38660	-990.22858	
1766	17.650	-724.16541	-9.39029	-577.29236	690.33331	-0.07592	-492.40433	-795.93817	9.78990	641.25873	773.35315	16.74146	646.54626	-29.96290	613.43958	-989.99658	
1767	17.660	-724.26831	-9.40667	-577.22162	690.27795	-0.04765	-492.43860	-795.98444	9.81895	641.25244	773.37494	16.82681	646.55524	-30.19019	613.49860	-989.73187	
1768	17.670	-724.37952	-9.39667	-577.24609	690.18817	-0.09605	-492.44614	-796.03992	9.81424	641.27325	773.23364	16.74997	646.53674	-30.47308	613.46869	-989.28186	
1769	17.680	-724.52826	-9.37476	-577.19055	690.13629	-0.06605	-492.38666	-796.10089	9.76740	641.28229	773.09418	16.71572	646.55298	-30.61186	613.50128	-988.92108	
1770	17.690	-724.68530	-9.36886	-577.20667	689.99591	-0.10867	-492.43073	-796.19189	9.77173	641.28082	773.00092	16.69449	646.56342	-30.68162	613.53113	-988.78357	
1771	17.700	-724.86169	-9.05762	-577.18915	689.64844	0.07701	-492.56335	-796.29974	9.75218	641.33893	772.89954	16.73065	646.56763	-30.72868	613.56360	-988.83685	
1772	17.710	-725.03943	-9.02528	-577.16754	689.63879	0.16654	-492.50461	-796.45422	9.71650	641.27924	772.86261	16.68860	646.58569	-30.91371	613.61749	-989.04688	
1773	17.720	-725.14038	-8.98230	-577.09656	689.54730	0.25178	-492.52090	-796.59906	9.75110	641.30933	772.75397	16.64974	646.58655	-31.02945	613.67090	-989.25446	
1774	17.730	-725.29596	-8.89444	-577.07452	689.48529	0.15871	-492.54596	-796.69049	9.66599	641.30939	772.72968	16.65942	646.59857	-30.98894	613.64771	-989.45496	
1775	17.740	-725.31830	-8.98309	-577.00708	689.41125	0.15278	-492.54123	-796.74005	9.68509	641.36310	772.66382	16.64923	646.59650	-30.82028	613.58136	-989.54504	
1776	17.750	-725.42609	-9.00930	-577.00848	689.37091	0.24863	-492.52954	-796.81372	9.64575	641.34369	772.49109	16.80696	646.63617	-30.77136	613.58807	-989.65332	
1777	17.760	-725.53278	-9.01413	-577.10559	689.32813	0.25399	-492.56927	-796.93170	9.76423	641.36627	772.42267	16.90519	646.66858	-30.83969	613.63501	-989.62823	
1778	17.770	-725.52789	-8.96283	-577.14185	689.32202	0.28232	-492.53705	-796.91705	9.59370	641.34357	772.48065	16.65579	646.59259	-30.89600	613.73193	-989.60419	
1779	17.780	-725.56793	-8.93022	-577.14728	689.30969	0.38185	-492.49426	-797.12677	9.74263	641.44049	772.36865	16.66991	646.60309	-31.09177	613.79468	-989.39313	
1780	17.790	-725.48907	-9.12590	-577.18610	689.22760	0.33968	-492.55795	-797.21490	9.66683	641.47894	772.30695	16.60818	646.58496	-31.30250	613.77930	-989.31213	
1781	17.800	-725.56732	-9.13305	-577.16193	689.18268	0.28860	-492.54636	-797.22168	9.65926	641.51831	772.34766	16.29273	646.59509	-31.32780	613.84967	-989.19952	
1782	17.810	-725.68726	-9.05756	-577.21692	689.10864	0.36522	-492.48569	-797.19891	9.19909	641.44141	772.09607	16.44730	646.65039	-31.37475	614.07861	-988.98883	
1783	17.820	-725.77765	-8.85341	-577.16272	689.04077	0.49380	-492.39502	-797.28223	9.14023	641.46783	772.29608	16.29525	646.64368	-31.48040	614.24036	-988.86481	
1784	17.830	-725.68109	-8.94040	-577.24738	688.92004	0.60120	-492.37509	-797.31720	9.12790	641.50446	772.37378	16.20586	646.88617	-31.36404	614.35254	-988.51910	
1785	17.840	-725.72455	-8.88888	-577.21967	688.93549	0.54061	-492.23569	-797.48779	9.02133	641.47516	772.23596	16.14327	646.89490	-31.41383	614.52972	-988.51117	
1786	17.850	-725.75470	-8.81749	-577.22607	688.90344	0.64832	-492.22980	-797.60205	8.90356	641.45227	771.78442	15.73808	646.65564	-31.58063	614.66095	-988.54871	
1787	17.860	-725.82782	-8.72155	-577.16821	688.90100	0.67627	-492.19089	-797.60950	8.78990	641.46338	771.76184	15.69966	646.67957	-31.57256	614.85394	-988.63995	
1788	17.870	-725.89105	-8.68150	-577.17822	688.83459	0.74566	-492.15915	-797.70502	8.77958	641.51758	771.68127	15.67078	646.68378	-31.60113	615.00574	-988.72076	
1789	17.880	-725.95062	-8.53698	-577.12878	688.83881	0.81072	-492.12680	-797.73413	8.72058	641.50824	771.68756	15.65859	646.70795	-31.66643	615.19006	-988.72852	
1790	17.890	-725.96704	-8.43731	-577.07574	688.86554	0.82364	-492.09006	-797.69672	8.50489	641.55823	771.68195	15.53833	646.75153	-31.81443	615.39282	-988.70734	
1791	17.900	-725.96490	-8.39377	-577.07458	688.76978	0.89746	-492.09094	-797.75592	8.44170	641.59406	771.54956	15.40931	646.76880	-31.98210	615.59003	-988.50293	
1792	17.910	-725.95422	-8.28676	-577.02051	688.67615	0.98885	-492.05157	-797.79407	8.31497	641.63379	771.48840	15.35703	646.75708	-32.01768	615.66565	-988.38037	
1793	17.920	-726.03107	-8.12320	-577.06696	688.52411	1.17423	-492.18640	-797.77087	8.21210	641.66504	771.43073	15.23375	646.79004	-31.95209	615.77191	-987.98993	
1794	17.930	-726.12457	-8.03575	-577.02698	688.44641	1.25083	-492.17282	-797.81384	8.17283	641.70355	771.37384	15.15126	646.80334	-31.99470	615.86346	-987.46722	
1795	17.940	-726.09961	-7.96589	-577.05518	688.38068	1.27879	-492.14606	-797.87378	8.09022	641.70251	771.38257	15.12716	646.78802	-31.98760	615.93970	-987.20605	
1796	17.950	-726.10229	-7.90964	-577.06030	688.32300	1.39669	-492.07895	-797.96606	7.99589	641.69983	771.35999	15.08526	646.78357	-32.02861	616.04706	-987.05518	
1797	17.960	-726.11517	-7.82889	-577.00299	688.33167	1.42982	-492.10703	-797.96106	7.95094	641.72040	771.38721	15.00119	646.83032	-32.12458	616.18799	-986.97168	
1798	17.970	-726.07733	-7.76842	-576.95050	688.26398	1.42774	-491.94983	-798.03906	7.85429	641.75128	771.34747	14.82037	646.89624	-32.30976	616.36719	-986.86481	
1799	17.980	-726.20496	-7.60068	-576.92133	688.27209	1.55107	-491.93542	-798.13354	7.78297	641.74689	770.96680	14.65091	646.91687	-32.29106	616.62561	-986.83856	
1800	17.990	-726.18854	-7.43168	-576.91534	688.27997	1.67214	-491.85654	-798.13428	7.76796	641.80933	771.34320	14.53062	647.00812	-32.18524	616.91925	-986.85474	
1801	18.000	-726.19513	-7.23358	-576.84033	688.35809	1.84961	-491.83820	-798.24561	7.63376	641.81073	771.37817	14.46936	647.05066	-32.09822	617.16785	-986.89093	
1802	18.010	-726.28021	-7.03303	-576.70972	688.39099	1.94731	-491.75458	-798.26544	7.52848	641.84558	771.37689	14.36017	647.15009	-32.13292	617.43628	-986.84991	
1803	18.020	-726.33130	-6.85212	-576.64899	688.42487	2.07027	-491.71072	-798.27185	7.31080	641.91681	771.33234	14.23583	647.19263	-32.05134	617.51855	-986.74506	
1804	18.030	-726.31097	-6.77968	-576.59869	688.39209	2.10432	-491.68613	-798.27893	7.06519	641.88483	771.23041	14.06776	647.20715	-32.12099	617.75464	-986.45129	
1805	18.040	-726.41449	-6.59504	-576.52582	688.38403	2.24417	-491.68854	-798.20496	6.86821	641.94550	771.10583	13.90477	647.23035	-32.27625	618.00153	-986.23120	
1806	18.050	-726.38135	-6.48112	-576.47302	688.37073	2.39572	-491.61691	-798.27118	6.70275	641.95599	771.06256	13.79974	647.24988	-32.32691	618.16998	-986.10315	
1807	18.060	-726.36200	-6.35054	-576.48132	688.31409	2.52718	-491.55908	-798.21600	6.55280	642.04688	771.00732	13.70916	647.26227	-32.28515	618.33868	-985.68921	
1808	18.070	-726.36206	-6.28387	-576.40497	688.20306	2.58707	-491.60727	-798.22491	6.37221	642.10583	770.95264	13.62097	647.32269	-32.38234	618.54004	-985.23602	
1809	18.080	-726.32977	-6.17661	-576.40125	688.12390	2.65003	-491.55164	-798.27515	6.27201	642.12347	770.99316	13.46540	647.32147	-32.24380	618.75513	-984.85486	
1810	18.090	-726.42249	-6.11466	-576.35999	688.04773	2.93297	-491.69675	-798.26080	6.22661	642.16962	771.03308	13.32241	647.36902	-32.18738	618.96985	-984.62323	
1811	18.100	-726.38000	-6.14121	-576.38623	688.04144	2.92067	-491.66428	-798.25592	6.20638	642.18738	770.97583	13.40939	647.41766	-32.24747	619.09290	-984.54889	
1812	18.110	-726.32312	-6.13921	-576.36450	688.10968	2.85458	-491.58429	-798.24304	6.10419	642.23737	771.19879	13.00818	647.37238	-32.22785	619.31488	-984.51544	
1813	18.120	-726.48590	-5.90390	-576.36096	688.05316	2.91378	-491.54846	-798.06677	6.05184	642.35272	771.14423	13.01602	647.48468	-32.06816	619.55121	-984.34735	
1814	18.130	-726.63251	-5.58519	-576.25537	688.09650	3.07673	-491.48358	-798.12811	5.98345	642.34442	771.04584	12.68080	647.57953	-32.33047	619.65765	-984.58685	
1815	18.140	-726.49896	-5.72410	-576.41534	687.92523	3.27907	-491.50372	-798.15540	5.90571	642.37439	770.98749	12.53704	647.58337	-32.46308	619.95898	-984.91730	
1816	18.150	-726.59869	-5.56689	-576.29572	687.93250	3.36873	-491.45740	-798.16541	5.83773	642.38641	770.94635	12.49773	647.66235	-32.46457	620.14941	-984.95825	
1817	18.160	-726.65137	-5.34280	-576.18170	687.91870	3.49949	-491.24622	-798.19141	5.75303	642.39844	770.94794	12.45014	647.69348	-32.51947	620.25446	-984.99103	
1818	18.170	-726.68170	-5.22596	-576.08636	687.81555	3.63361	-491.31686	-798.24683	5.65338	642.47888	770.94238	12.32413	647.72894	-32.33671	620.42554	-984.71130	
1819	18.180	-726.77997	-5.11081	-576.02509	687.85455	3.70021	-491.27252	-798.31903	5.47395	642.53131	770.94904	12.26601	647.75879	-32.32983	620.64093	-984.34271	
1820	18.190	-726.76215	-5.03388	-576.06183	687.94678	3.68105	-491.19327	-798.60376	5.22220	642.39044	770.83661	12.08020	647.76971	-32.41156	620.67114	-984.21521	
1821	18.200	-726.79547	-4.94583	-576.02997	687.83887	3.73481	-491.19647	-798.63641	5.17677	642.45972	770.79999	12.05349	647.79956	-32.63633	620.80164	-983.84155	
1822	18.210	-726.80402	-4.75383	-576.02802	687.82202	3.76344	-491.17432	-798.52795	5.26655	642.56372	770.89819	12.07396	647.79663	-32.92111	621.23291	-983.10406	
1823	18.220	-726.87775	-4.68220	-575.98962	687.78583	3.85529	-491.10538	-798.68750	5.12002	642.43231	770.90198	12.05337	647.81897	-32.69806	621.48419	-982.59662	
1824	18.230	-727.00677	-4.63584	-575.96204	687.71423	3.91381	-491.14758	-798.74500	5.05518	642.45239	770.77301	11.95153	647.81653	-32.81223	621.55719	-982.32489	
